<?xml version="1.0" encoding="UTF-8"?>
<svg xmlns="http://www.w3.org/2000/svg" version="1.1" viewBox="0 0 503.8 225.3">
  <defs>
    <style>
      .cls-1 {
        fill: #00902f;
      }
    </style>
  </defs>
  <!-- Generator: Adobe Illustrator 28.7.4, SVG Export Plug-In . SVG Version: 1.2.0 Build 166)  -->
  <g>
    <g id="Layer_1">
      <path class="cls-1" d="M227,164.6c-10.4,0-20.7-3.9-28.6-11.8l-62.1-62.1L227,0l90.7,90.7-62.1,62.1c-7.9,7.9-18.2,11.8-28.6,11.8ZM144,90.7l58.2,58.2c13.6,13.6,35.8,13.6,49.4,0l58.2-58.2L227,7.8l-82.9,82.9Z"/>
      <path class="cls-1" d="M224.1,55.7c-7.9-5.1-16.7-9.9-26.6-14.3,5.3,3.2,13.7,8.8,23.2,16.7,1.1-.8,2.2-1.6,3.4-2.3Z"/>
      <path class="cls-1" d="M233.3,105.8c-1.5,2-3,4-4.5,6.1,8,12,15.1,26.7,18.6,43.9,2.2-1.4,4.2-3.1,6.2-5l1.1-1.1c-1.5-6.5-4.2-15.2-9-24.7-3-5.9-7-12.4-12.4-19.2Z"/>
      <path class="cls-1" d="M245.5,87.5s0,0,.1-.1c-.9-1.1-1.8-2.3-2.8-3.3-18,13.7-28.5,28.8-34.7,40.9-4.8,9.5-7.5,18.2-9,24.7l1.1,1.1c1.9,1.9,4,3.6,6.2,5,6.4-31.4,24.5-54.3,39-68.3Z"/>
      <path class="cls-1" d="M256.4,77.9c6.2-5,11.8-8.8,15.7-11.2-6.4,2.9-12.2,6-17.5,9.3.6.6,1.2,1.2,1.9,1.9Z"/>
      <path class="cls-1" d="M279.5,115.4c-8-15.8-22.1-35.7-46.2-53.5-1.3,1.1-2.7,2.3-4,3.5,1,.9,2,1.9,3.1,2.9,14.3,13.8,31.3,34.5,42,61.7l8.3-8.3c-.9-2.1-1.9-4.2-3.1-6.4Z"/>
      <path class="cls-1" d="M210.6,79.8c3.7-4.2,7.4-8.1,10.9-11.5,14-13.5,27.4-22.5,34.8-27-22.2,9.9-39.1,21.9-52,34.2,2.1,1.4,4.2,2.8,6.2,4.3Z"/>
      <path class="cls-1" d="M197.8,82.2c-10.9,11.7-18.4,23.3-23.4,33.2-1.1,2.2-2.1,4.3-3.1,6.4l8.3,8.3c6.5-16.6,15.3-30.8,24.5-42.4-2.1-2-4.2-3.8-6.3-5.5Z"/>
      <path class="cls-1" d="M208.4,87.5c3.9,3.8,8.1,8.2,12.2,13.3,1.3-1.5,2.7-3.1,4.1-4.6-10.3-10.5-24.2-20.9-42.9-29.4,6,3.8,16.1,10.7,26.6,20.8Z"/>
      <path class="cls-1" d="M2.7,197.7v4h11.7v-4H2.7ZM2.7,208.2v3.8h11.3v-3.8H2.7ZM4.3,197.7H0v26.2h4.3v-26.2ZM33,211.4h-4.7l8.3,12.5h5.3l-8.9-12.5ZM27.3,197.7h-4.4v26.2h4.4v-26.2ZM25.5,197.7v3.8h5.3c1,0,1.9.2,2.7.5.7.4,1.3.8,1.8,1.5.4.6.6,1.4.6,2.4h0c0,.9-.2,1.7-.6,2.4-.4.7-1,1.2-1.8,1.5-.7.3-1.6.5-2.7.5h-5.3v3.7h5.5c1.9,0,3.6-.3,5-1,1.4-.7,2.5-1.6,3.3-2.9.8-1.2,1.2-2.6,1.2-4.3h0c0-1.6-.4-3.1-1.2-4.3s-1.9-2.2-3.3-2.8c-1.4-.7-3.1-1-5-1h-5.5ZM52.5,213.4l-.9,3.7h13.8l-.8-3.7h-12.1ZM54.3,214.7l4.1-9.6,4.2,9.7v1.1c0,0,3.6,8,3.6,8h5l-12.8-27.6-12.8,27.6h5l3.6-8.2v-1ZM82.1,197.7h-4.5v26.2h4.5v-26.2ZM95.7,197.7h-4.4v26.2h14.8v-4h-10.4v-22.2ZM115.3,220v3.9h13.2v-3.9h-13.2ZM115.3,197.7v3.9h13.2v-3.9h-13.2ZM115.3,208v3.8h12.4v-3.8h-12.4ZM116.9,197.7h-4.3v26.2h4.3v-26.2ZM156.8,197.7h-5.1l-6.1,11.2-6.1-11.2h-5.1l8.9,15.2v11h4.5v-11l8.9-15.2ZM182.2,197.7h-4.4v26.2h14.8v-4h-10.4v-22.2ZM204.2,213.4l-.9,3.7h13.8l-.8-3.7h-12.2ZM206.1,214.7l4.1-9.6,4.2,9.7v1.1c0,0,3.6,8,3.6,8h5l-12.8-27.6-12.8,27.6h5l3.6-8.2v-1ZM255.4,197.7l-6.1,17.5-7.5-18.8-7.4,18.8-6.2-17.5h-5.1l10.7,27.6,8.1-18.5,8.1,18.5,10.7-27.6h-5.2ZM290.6,197.7h-4.3v17.6l-19.1-18.9v27.5h4.3v-17.6l19.1,18.9v-27.5ZM324.6,211.4h-4.8l8.3,12.5h5.3l-8.9-12.5ZM318.8,197.7h-4.4v26.2h4.4v-26.2ZM317,197.7v3.8h5.3c1,0,1.9.2,2.7.5.7.4,1.3.8,1.8,1.5.4.6.6,1.4.6,2.4h0c0,.9-.2,1.7-.6,2.4-.4.7-1,1.2-1.8,1.5-.7.3-1.6.5-2.7.5h-5.3v3.7h5.5c1.9,0,3.6-.3,5-1,1.4-.7,2.5-1.6,3.3-2.9.8-1.2,1.2-2.6,1.2-4.3h0c0-1.6-.4-3.1-1.2-4.3s-1.9-2.2-3.3-2.8c-1.4-.7-3.1-1-5-1h-5.5ZM342.7,220v3.9h13.2v-3.9h-13.2ZM342.7,197.7v3.9h13.2v-3.9h-13.2ZM342.7,208v3.8h12.4v-3.8h-12.4ZM344.3,197.7h-4.3v26.2h4.3v-26.2ZM388.1,197.7h-4.3v17.6l-19.1-18.9v27.5h4.3v-17.6l19.1,18.9v-27.5ZM400.1,220v3.9h13.2v-3.9h-13.2ZM400.1,197.7v3.9h13.2v-3.9h-13.2ZM400.1,208v3.8h12.4v-3.8h-12.4ZM401.7,197.7h-4.3v26.2h4.3v-26.2ZM451.9,197.7l-6.1,17.5-7.5-18.8-7.4,18.8-6.2-17.5h-5.1l10.7,27.6,8.1-18.5,8.1,18.5,10.7-27.6h-5.2ZM463.8,213.4l-.9,3.7h13.8l-.8-3.7h-12.2ZM465.7,214.7l4.1-9.6,4.2,9.7v1.1c0,0,3.6,8,3.6,8h5l-12.8-27.6-12.8,27.6h5l3.6-8.2v-1ZM493.4,197.7h-4.4v26.2h14.8v-4h-10.4v-22.2Z"/>
    </g>
  </g>
</svg>