<svg width="504" height="226" viewBox="0 0 504 226" fill="none" xmlns="http://www.w3.org/2000/svg">
<g clip-path="url(#clip0_5_4)">
<path d="M252 164.6C241.6 164.6 231.3 160.7 223.4 152.8L161.3 90.7L252 0L342.7 90.7L280.6 152.8C272.7 160.7 262.4 164.6 252 164.6ZM169 90.7L227.2 148.9C240.8 162.5 263 162.5 276.6 148.9L334.8 90.7L252 7.8L169.1 90.7H169Z" fill="#00902F"/>
<path d="M249.1 55.7C241.2 50.6 232.4 45.8 222.5 41.4C227.8 44.6 236.2 50.2 245.7 58.1C246.8 57.3 247.9 56.5 249.1 55.8V55.7Z" fill="#00902F"/>
<path d="M258.3 105.8C256.8 107.8 255.3 109.8 253.8 111.9C261.8 123.9 268.9 138.6 272.4 155.8C274.6 154.4 276.6 152.7 278.6 150.8L279.7 149.7C278.2 143.2 275.5 134.5 270.7 125C267.7 119.1 263.7 112.6 258.3 105.8Z" fill="#00902F"/>
<path d="M270.5 87.5C270.5 87.5 270.5 87.5 270.6 87.4C269.7 86.3 268.8 85.1 267.8 84.1C249.8 97.8 239.3 112.9 233.1 125C228.3 134.5 225.6 143.2 224.1 149.7L225.2 150.8C227.1 152.7 229.2 154.4 231.4 155.8C237.8 124.4 255.9 101.5 270.4 87.5H270.5Z" fill="#00902F"/>
<path d="M281.4 77.9C287.6 72.9 293.2 69.1 297.1 66.7C290.7 69.6 284.9 72.7 279.6 76C280.2 76.6 280.8 77.2 281.5 77.9H281.4Z" fill="#00902F"/>
<path d="M304.5 115.4C296.5 99.6 282.4 79.7 258.3 61.9C257 63 255.6 64.2 254.3 65.4C255.3 66.3 256.3 67.3 257.4 68.3C271.7 82.1 288.7 102.8 299.4 130L307.7 121.7C306.8 119.6 305.8 117.5 304.6 115.3L304.5 115.4Z" fill="#00902F"/>
<path d="M235.6 79.8001C239.3 75.6001 243 71.7001 246.5 68.3001C260.5 54.8001 273.9 45.8 281.3 41.3C259.1 51.2 242.2 63.2 229.3 75.5C231.4 76.9 233.5 78.3001 235.5 79.8001H235.6Z" fill="#00902F"/>
<path d="M222.8 82.2C211.9 93.9 204.4 105.5 199.4 115.4C198.3 117.6 197.3 119.7 196.3 121.8L204.6 130.1C211.1 113.5 219.9 99.3 229.1 87.7C227 85.7 224.9 83.9 222.8 82.2Z" fill="#00902F"/>
<path d="M233.4 87.5C237.3 91.3 241.5 95.7 245.6 100.8C246.9 99.3 248.3 97.7 249.7 96.2C239.4 85.7 225.5 75.3 206.8 66.8C212.8 70.6 222.9 77.5 233.4 87.6V87.5Z" fill="#00902F"/>
<path d="M2.7 197.7V201.7H14.4V197.7H2.7ZM2.7 208.2V212H14V208.2H2.7ZM4.3 197.7H0V223.9H4.3V197.7ZM33 211.4H28.3L36.6 223.9H41.9L33 211.4ZM27.3 197.7H22.9V223.9H27.3V197.7ZM25.5 197.7V201.5H30.8C31.8 201.5 32.7 201.7 33.5 202C34.2 202.4 34.8 202.8 35.3 203.5C35.7 204.1 35.9 204.9 35.9 205.9C35.9 206.8 35.7 207.6 35.3 208.3C34.9 209 34.3 209.5 33.5 209.8C32.8 210.1 31.9 210.3 30.8 210.3H25.5V214H31C32.9 214 34.6 213.7 36 213C37.4 212.3 38.5 211.4 39.3 210.1C40.1 208.9 40.5 207.5 40.5 205.8C40.5 204.2 40.1 202.7 39.3 201.5C38.5 200.3 37.4 199.3 36 198.7C34.6 198 32.9 197.7 31 197.7H25.5ZM52.5 213.4L51.6 217.1H65.4L64.6 213.4H52.5ZM54.3 214.7L58.4 205.1L62.6 214.8V215.9L66.2 223.9H71.2L58.4 196.3L45.6 223.9H50.6L54.2 215.7V214.7H54.3ZM82.1 197.7H77.6V223.9H82.1V197.7ZM95.7 197.7H91.3V223.9H106.1V219.9H95.7V197.7ZM115.3 220V223.9H128.5V220H115.3ZM115.3 197.7V201.6H128.5V197.7H115.3ZM115.3 208V211.8H127.7V208H115.3ZM116.9 197.7H112.6V223.9H116.9V197.7ZM156.8 197.7H151.7L145.6 208.9L139.5 197.7H134.4L143.3 212.9V223.9H147.8V212.9L156.7 197.7H156.8ZM182.2 197.7H177.8V223.9H192.6V219.9H182.2V197.7ZM204.2 213.4L203.3 217.1H217.1L216.3 213.4H204.1H204.2ZM206.1 214.7L210.2 205.1L214.4 214.8V215.9L218 223.9H223L210.2 196.3L197.4 223.9H202.4L206 215.7V214.7H206.1ZM255.4 197.7L249.3 215.2L241.8 196.4L234.4 215.2L228.2 197.7H223.1L233.8 225.3L241.9 206.8L250 225.3L260.7 197.7H255.5H255.4ZM290.6 197.7H286.3V215.3L267.2 196.4V223.9H271.5V206.3L290.6 225.2V197.7ZM324.6 211.4H319.8L328.1 223.9H333.4L324.5 211.4H324.6ZM318.8 197.7H314.4V223.9H318.8V197.7ZM317 197.7V201.5H322.3C323.3 201.5 324.2 201.7 325 202C325.7 202.4 326.3 202.8 326.8 203.5C327.2 204.1 327.4 204.9 327.4 205.9C327.4 206.8 327.2 207.6 326.8 208.3C326.4 209 325.8 209.5 325 209.8C324.3 210.1 323.4 210.3 322.3 210.3H317V214H322.5C324.4 214 326.1 213.7 327.5 213C328.9 212.3 330 211.4 330.8 210.1C331.6 208.9 332 207.5 332 205.8C332 204.2 331.6 202.7 330.8 201.5C330 200.3 328.9 199.3 327.5 198.7C326.1 198 324.4 197.7 322.5 197.7H317ZM342.7 220V223.9H355.9V220H342.7ZM342.7 197.7V201.6H355.9V197.7H342.7ZM342.7 208V211.8H355.1V208H342.7ZM344.3 197.7H340V223.9H344.3V197.7ZM388.1 197.7H383.8V215.3L364.7 196.4V223.9H369V206.3L388.1 225.2V197.7ZM400.1 220V223.9H413.3V220H400.1ZM400.1 197.7V201.6H413.3V197.7H400.1ZM400.1 208V211.8H412.5V208H400.1ZM401.7 197.7H397.4V223.9H401.7V197.7ZM451.9 197.7L445.8 215.2L438.3 196.4L430.9 215.2L424.7 197.7H419.6L430.3 225.3L438.4 206.8L446.5 225.3L457.2 197.7H452H451.9ZM463.8 213.4L462.9 217.1H476.7L475.9 213.4H463.7H463.8ZM465.7 214.7L469.8 205.1L474 214.8V215.9L477.6 223.9H482.6L469.8 196.3L457 223.9H462L465.6 215.7V214.7H465.7ZM493.4 197.7H489V223.9H503.8V219.9H493.4V197.7Z" fill="#00902F"/>
</g>
<defs>
<clipPath id="clip0_5_4">
<rect width="503.8" height="225.3" fill="white"/>
</clipPath>
</defs>
</svg>
