<svg xmlns="http://www.w3.org/2000/svg" viewBox="35.605000000000004 131 503.7900085449219 302.66299885559084"> <svg xmlns="http://www.w3.org/2000/svg" xmlns:xlink="http://www.w3.org/1999/xlink" version="1.1" id="Layer_1" x="204" y="201" viewBox="15.489999771118164 37.16999816894531 469.02001953125 425.65997314453125" xml:space="preserve" height="118.87737129453109" width="130.9868621826172" preserveAspectRatio="xMinYMin" enable-background="new 0 0 500 500" style="overflow: visible;"><path class="st0" d="M250,462.83c-26.78,0-53.56-10.19-73.95-30.58L15.49,271.68L250,37.17l234.51,234.51L323.95,432.25    C303.56,452.63,276.78,462.83,250,462.83z M35.59,271.68l150.51,150.51c35.23,35.23,92.56,35.23,127.79,0l150.51-150.51L250,57.28    L35.59,271.68z" style="fill: #00902F; fill-opacity: 1;"></path><path class="st0" d="M242.65,181.1c-20.41-13.14-43.2-25.64-68.71-37.06c13.72,8.37,35.47,22.76,60.04,43.11     C236.82,185.12,239.71,183.1,242.65,181.1z" style="fill: #00902F; fill-opacity: 1;"></path><path class="st0" d="M266.48,310.66c-3.91,5.06-7.78,10.34-11.58,15.85c20.77,31.15,38.96,69.1,48.09,113.6     c5.64-3.66,10.98-7.94,15.93-12.89l2.94-2.94c-3.81-16.83-10.74-39.29-23.29-63.96C290.86,345.17,280.44,328.18,266.48,310.66z" style="fill: #00902F; fill-opacity: 1;"></path><path class="st0" d="M297.9,263.5c0.1-0.1,0.2-0.19,0.31-0.29c-2.39-2.94-4.77-5.82-7.16-8.62     c-46.42,35.45-73.76,74.54-89.67,105.83c-12.53,24.64-19.44,47.05-23.25,63.86l2.94,2.94c4.94,4.94,10.28,9.22,15.91,12.88     C213.64,358.98,260.45,299.66,297.9,263.5z" style="fill: #00902F; fill-opacity: 1;"></path><path class="st0" d="M326.12,238.62c16.13-13.01,30.46-22.66,40.49-28.92c-16.5,7.53-31.53,15.64-45.28,24.12     C322.94,235.42,324.55,237,326.12,238.62z" style="fill: #00902F; fill-opacity: 1;"></path><path class="st0" d="M385.97,335.67c-20.8-40.86-57.11-92.29-119.58-138.23c-3.41,2.89-6.87,5.89-10.36,9.02     c2.64,2.44,5.29,4.93,7.95,7.5c36.92,35.63,81.03,89.14,108.53,159.66l21.37-21.37C391.47,346.83,388.84,341.3,385.97,335.67z" style="fill: #00902F; fill-opacity: 1;"></path><path class="st0" d="M207.73,243.59c9.63-10.95,19.18-20.84,28.28-29.63c36.22-34.96,70.91-58.26,90.04-69.92     c-57.31,25.66-101.05,56.71-134.38,88.42C197.17,236.06,202.51,239.77,207.73,243.59z" style="fill: #00902F; fill-opacity: 1;"></path><path class="st0" d="M174.6,249.72c-28.14,30.17-47.46,60.16-60.58,85.95c-2.86,5.63-5.49,11.16-7.91,16.58l21.37,21.37     c16.73-42.91,39.62-79.52,63.3-109.64C185.29,258.88,179.88,254.13,174.6,249.72z" style="fill: #00902F; fill-opacity: 1;"></path><path class="st0" d="M202.1,263.5c10.09,9.74,20.87,21.18,31.55,34.26c3.39-3.98,6.96-7.99,10.73-12     c-26.72-27.09-62.66-54-110.99-76.06C149.02,219.44,175.02,237.37,202.1,263.5z" style="fill: #00902F; fill-opacity: 1;"></path></svg> <svg y="342.713" viewBox="2.109999895095825 8.940000534057617 363.7900085449219 20.94999885559082" x="105.605" height="20.94999885559082" width="363.7900085449219" style="overflow: visible;"><g fill="#00902F" fill-opacity="1" style=""><path d="M4.08 9.99L4.08 12.85L12.53 12.85L12.53 9.99L4.08 9.99ZM4.08 17.58L4.08 20.36L12.26 20.36L12.26 17.58L4.08 17.58ZM5.24 9.99L2.11 9.99L2.11 28.89L5.24 28.89L5.24 9.99ZM25.95 19.87L22.52 19.87L28.51 28.89L32.37 28.89L25.95 19.87ZM21.79 9.99L18.60 9.99L18.60 28.89L21.79 28.89L21.79 9.99ZM20.49 9.99L20.49 12.74L24.30 12.74Q25.41 12.74 26.22 13.12Q27.03 13.50 27.49 14.20Q27.95 14.90 27.95 15.93L27.95 15.93Q27.95 16.93 27.49 17.64Q27.03 18.36 26.22 18.72Q25.41 19.09 24.30 19.09L24.30 19.09L20.49 19.09L20.49 21.73L24.43 21.73Q26.51 21.73 28.03 21.01Q29.54 20.28 30.39 18.95Q31.24 17.63 31.24 15.85L31.24 15.85Q31.24 14.07 30.39 12.76Q29.54 11.45 28.03 10.72Q26.51 9.99 24.43 9.99L24.43 9.99L20.49 9.99ZM39.99 21.33L39.37 24.03L49.36 24.03L48.76 21.33L39.99 21.33ZM41.34 22.27L44.31 15.34L47.33 22.36L47.38 23.14L49.95 28.89L53.57 28.89L44.31 8.94L35.07 28.89L38.66 28.89L41.28 22.98L41.34 22.27ZM61.40 9.99L58.16 9.99L58.16 28.89L61.40 28.89L61.40 9.99ZM71.20 9.99L68.01 9.99L68.01 28.89L78.70 28.89L78.70 26.03L71.20 26.03L71.20 9.99ZM85.40 26.08L85.40 28.89L94.93 28.89L94.93 26.08L85.40 26.08ZM85.40 9.99L85.40 12.80L94.93 12.80L94.93 9.99L85.40 9.99ZM85.40 17.39L85.40 20.14L94.39 20.14L94.39 17.39L85.40 17.39ZM86.56 9.99L83.43 9.99L83.43 28.89L86.56 28.89L86.56 9.99ZM115.32 9.99L111.67 9.99L107.27 18.06L102.90 9.99L99.25 9.99L105.68 20.95L105.68 28.89L108.92 28.89L108.92 20.93L115.32 9.99ZM133.65 9.99L130.46 9.99L130.46 28.89L141.16 28.89L141.16 26.03L133.65 26.03L133.65 9.99ZM149.58 21.33L148.96 24.03L158.95 24.03L158.36 21.33L149.58 21.33ZM150.93 22.27L153.90 15.34L156.92 22.36L156.98 23.14L159.54 28.89L163.16 28.89L153.90 8.94L144.67 28.89L148.26 28.89L150.88 22.98L150.93 22.27ZM186.57 9.99L182.17 22.63L176.72 9.05L171.37 22.63L166.86 9.99L163.16 9.99L170.88 29.89L176.72 16.52L182.55 29.89L190.30 9.99L186.57 9.99ZM211.95 9.99L208.82 9.99L208.82 22.68L195.02 9.05L195.02 28.89L198.15 28.89L198.15 16.20L211.95 29.84L211.95 9.99ZM236.47 19.87L233.04 19.87L239.03 28.89L242.89 28.89L236.47 19.87ZM232.31 9.99L229.12 9.99L229.12 28.89L232.31 28.89L232.31 9.99ZM231.01 9.99L231.01 12.74L234.82 12.74Q235.93 12.74 236.74 13.12Q237.55 13.50 238.01 14.20Q238.46 14.90 238.46 15.93L238.46 15.93Q238.46 16.93 238.01 17.64Q237.55 18.36 236.74 18.72Q235.93 19.09 234.82 19.09L234.82 19.09L231.01 19.09L231.01 21.73L234.95 21.73Q237.03 21.73 238.55 21.01Q240.06 20.28 240.91 18.95Q241.76 17.63 241.76 15.85L241.76 15.85Q241.76 14.07 240.91 12.76Q240.06 11.45 238.55 10.72Q237.03 9.99 234.95 9.99L234.95 9.99L231.01 9.99ZM249.59 26.08L249.59 28.89L259.12 28.89L259.12 26.08L249.59 26.08ZM249.59 9.99L249.59 12.80L259.12 12.80L259.12 9.99L249.59 9.99ZM249.59 17.39L249.59 20.14L258.58 20.14L258.58 17.39L249.59 17.39ZM250.75 9.99L247.62 9.99L247.62 28.89L250.75 28.89L250.75 9.99ZM282.39 9.99L279.26 9.99L279.26 22.68L265.46 9.05L265.46 28.89L268.60 28.89L268.60 16.20L282.39 29.84L282.39 9.99ZM291.01 26.08L291.01 28.89L300.54 28.89L300.54 26.08L291.01 26.08ZM291.01 9.99L291.01 12.80L300.54 12.80L300.54 9.99L291.01 9.99ZM291.01 17.39L291.01 20.14L300.00 20.14L300.00 17.39L291.01 17.39ZM292.17 9.99L289.04 9.99L289.04 28.89L292.17 28.89L292.17 9.99ZM328.40 9.99L324 22.63L318.55 9.05L313.20 22.63L308.69 9.99L304.99 9.99L312.71 29.89L318.55 16.52L324.38 29.89L332.13 9.99L328.40 9.99ZM337.04 21.33L336.42 24.03L346.41 24.03L345.82 21.33L337.04 21.33ZM338.39 22.27L341.36 15.34L344.39 22.36L344.44 23.14L347.00 28.89L350.62 28.89L341.36 8.94L332.13 28.89L335.72 28.89L338.34 22.98L338.39 22.27ZM358.40 9.99L355.21 9.99L355.21 28.89L365.90 28.89L365.90 26.03L358.40 26.03L358.40 9.99Z" transform="translate(0, 0)"></path></g></svg></svg>