<svg width="14" height="15" viewBox="0 0 14 15" fill="none" xmlns="http://www.w3.org/2000/svg">
<path d="M13.6007 10.3929L10.5382 9.08037C10.4074 9.02462 10.262 9.01287 10.1239 9.0469C9.98579 9.08092 9.8625 9.15889 9.77255 9.26905L8.41628 10.9261C6.28773 9.92252 4.57474 8.20953 3.57116 6.08098L5.22822 4.72471C5.3386 4.63493 5.41673 4.51164 5.45077 4.37349C5.48481 4.23534 5.47292 4.08986 5.41689 3.95907L4.10437 0.896517C4.04287 0.755532 3.93411 0.640423 3.79684 0.571038C3.65957 0.501653 3.50239 0.482341 3.3524 0.516432L0.508603 1.17269C0.363998 1.20609 0.234981 1.28751 0.14261 1.40367C0.0502382 1.51983 -3.3311e-05 1.66387 1.65602e-08 1.81228C1.65602e-08 8.82607 5.68486 14.5 12.6877 14.5C12.8362 14.5001 12.9803 14.4499 13.0965 14.3575C13.2127 14.2651 13.2942 14.136 13.3276 13.9914L13.9838 11.1476C14.0177 10.9969 13.998 10.8391 13.9281 10.7013C13.8581 10.5636 13.7424 10.4545 13.6007 10.3929Z" fill="#222222"/>
</svg>
